<svg height="228pt" preserveAspectRatio="xMidYMid meet" viewBox="0 0 290 228" width="290pt" xmlns="http://www.w3.org/2000/svg"><g transform="matrix(.1 0 0 -.1 0 228)"><path d="m198 2079c-25-9-28-16-28-54 0-23 3-56 6-72 6-30 6-30 92-37 104-8 165-23 159-39-3-8-40-12-124-12-67 0-124-3-128-7-4-3-9-34-12-67l-6-61h51c34 0 57-6 73-19l23-18-22-12c-15-8-34-8-64-2-62 14-71 1-76-107-6-119 9-218 58-391 59-208 91-271 193-380 99-106 115-141 142-301 10-58 26-128 36-156 18-48 63-104 74-92 3 3 0 38-7 77-22 130 23 243 143 362 46 45 94 80 155 112 88 45 89 46 61 56-69 26-178 6-299-55-102-52-153-45-239 33-86 77-156 241-166 386-6 89 19 240 55 335 31 80 104 182 191 265 100 96 201 147 348 177 97 19 107 19 189 5 85-15 124-34 124-61 0-7-16-43-36-81-19-37-36-84-37-103l-2-35 63 1c57 1 66 4 97 34 19 19 35 38 35 43s-19 6-45 3c-41-7-45-5-45 14 0 11 11 37 24 58 13 20 27 47 30 58 9 31-33 77-101 110-47 24-72 28-163 32-120 5-202-6-323-44-76-25-82-25-114-10-96 46-325 79-385 55z"/><path d="m890 1950c-26-26-26-70 1-104 47-60 138-13 125 64-3 19-13 41-23 47-26 20-80 16-103-7zm95-50c0-18-6-26-23-28-24-4-38 18-28 44 3 9 15 14 28 12 17-2 23-10 23-28z"/><path d="m721 1874c-12-15-24-38-27-51-11-43 2-138 24-181 12-24 22-45 22-48s-20-26-44-52c-25-27-50-60-55-75-14-36-37-34-50 4-16 45-14 101 6 175 9 35 14 66 11 69-11 11-65-24-98-62-68-82-150-294-150-388 0-17 7-78 16-135 13-88 22-116 57-177 23-41 51-83 63-94 22-20 95-51 103-43 2 2-11 27-30 56-32 49-34 58-33 133 0 67 6 93 33 157 47 112 169 238 230 238 22 0 71-63 71-92 0-9 4-28 10-42 25-66 80 35 80 146 0 40 4 78 8 85 4 6 31 23 60 36 93 43 119 82 60 91-18 3-64 9-102 15-113 17-185 80-213 188-8 32-18 62-23 66-4 5-17-4-29-19z"/><path d="m1237 1623c-14-13-7-43 12-53 11-5 60-10 110-10 109 0 121-4 121-41v-29h-119c-104 0-121-2-144-20-49-39-45-173 6-185 12-3 92-4 177-3l155 3 3 121c3 152-8 194-58 211-37 13-252 18-263 6zm243-258c-10-26-10-26-117-23l-108 3v30 30l102 5c56 3 105 9 109 13 14 13 24-32 14-58z"/><path d="m1649 1610c0-8 0-85 1-170 1-105 5-157 13-162 7-4 83-8 170-8 142 0 159 2 176 19 55 55 29 201-35 201-23 0-25 3-20 23 34 115 28 120-156 115-123-2-148-6-149-18zm228-67c11-27-32-53-88-53-42 0-49-3-49-19 0-37 38-51 132-51 86 0 88 0 94-27 11-44-15-54-136-51l-105 3-3 94c-1 52-1 100 2 108 4 9 27 13 76 13 57 0 72-3 77-17z"/><path d="m2120 1623c-40-15-50-35-50-104 0-93 10-99 153-99 113 0 147-9 147-38 0-36-20-42-150-42-129 0-150-6-150-40 0-15 18-18 128-23 155-8 196-2 222 31 28 34 27 110-1 146-20 25-24 26-127 26-145 0-154 3-150 49l3 36 98-3c77-2 104 0 123 13 38 24 30 41-22 49-56 7-203 7-224-1z"/><path d="m2597 1436c8-41-17-133-48-176-91-125-411-161-897-100-133 17-262 35-289 40-26 6-129 13-228 16-214 8-303-6-382-59-51-35-97-88-108-127-7-23-5-23 32 11 22 20 66 49 99 65 57 28 64 29 199 28 106 0 166-6 245-23 58-13 137-29 175-37 39-7 97-20 130-28 33-7 80-18 105-24s86-20 135-32c96-23 310-45 440-44 147 1 311 48 383 110 64 54 94 113 100 193 5 81-8 129-50 177-35 40-47 43-41 10z"/><path d="m2737 1099c-22-62-88-130-165-172-75-41-219-66-377-66-194 0-375 30-735 121-107 28-231 56-275 63s-107 18-140 25c-94 19-213 9-266-22-44-26-113-88-106-95 2-2 25 8 50 23 94 52 255 50 467-7 258-70 675-169 777-185 134-21 413-15 508 11 183 51 294 173 283 313l-3 44z"/><path d="m1192 704c-15-11-22-25-22-50 0-29 6-38 35-55 38-22 44-39 21-58-11-9-20-9-34-2-16 8-21 7-26-6-8-21-6-23 37-30 27-4 39-1 56 16 31 31 26 59-20 101-45 41-45 60 2 60 31 0 41 23 13 34-24 9-38 7-62-10z"/><path d="m1923 705c-28-20-47-77-39-120 13-66 59-99 111-79 25 10 45 58 45 109 0 38-5 52-29 76-33 32-56 36-88 14zm59-42c36-32 14-135-26-120-35 14-43 89-14 124 14 17 18 16 40-4z"/><path d="m2139 691c-24-24-29-38-29-76 0-51 20-99 45-109 52-20 98 13 111 79 12 65-29 135-79 135-10 0-32-13-48-29zm70-25c16-19 17-92 1-111-28-34-60-4-60 55s32 89 59 56z"/><path d="m1350 610v-100h50c38 0 50 4 50 15 0 10-10 15-30 15-27 0-30 3-30 30 0 25 4 30 25 30 16 0 25 6 25 15s-9 15-25 15c-20 0-25 5-25 25 0 21 5 25 30 25 20 0 30 5 30 15 0 11-12 15-50 15h-50z"/><path d="m1527 610-25-100h24c17 0 24 6 24 20 0 15 7 20 29 20 20 0 30-6 34-20 3-12 14-20 27-20 16 0 20 5 16 18-3 9-9 35-15 57-32 128-30 125-60 125-28 0-29-3-54-100zm67 19c9-47 7-59-8-59-22 0-26 12-19 53 7 45 18 47 27 6z"/><path d="m1720 610c0-92 1-100 19-100 16 0 20 8 23 43 3 38 6 42 31 45 38 5 36 32-3 32-25 0-30 4-30 25 0 22 4 25 33 25 23 0 34 5 34 15 0 11-13 15-54 15h-53z"/><path d="m2340 610v-100h48c63 0 84 22 90 93 3 42 0 57-18 80s-29 27-71 27h-49zm88 58c15-15 16-82 2-109-6-10-20-19-30-19-18 0-20 7-20 70 0 61 2 70 18 70 10 0 23-5 30-12z"/><path d="m1677 399c-26-15-39-56-27-80 6-10 24-26 40-34 17-9 30-22 30-30 0-21-32-35-53-24-13 8-19 6-23-6-8-20-5-23 34-31 25-5 36-1 57 20 33 33 27 59-23 102-31 27-34 34-24 47 7 8 21 13 31 10 23-6 39 16 20 28-18 11-40 11-62-2z"/><path d="m2027 403c-26-7-47-56-47-113 0-78 53-121 111-89 27 14 8 38-25 32-17-4-28 2-40 18-33 48-7 125 40 116 33-6 52 18 25 32-20 11-33 12-64 4z"/><path d="m1830 300v-100h50c40 0 48 3 44 15-4 8-17 15-30 15-23 0-24 2-24 85 0 78-2 85-20 85-19 0-20-7-20-100z"/></g></svg>